<?xml version="1.0" encoding="UTF-8"?>
<svg version="1.1" xmlns="http://www.w3.org/2000/svg" width="512" height="512">
<path d="M0 0 C168.96 0 337.92 0 512 0 C512 168.96 512 337.92 512 512 C343.04 512 174.08 512 0 512 C0 343.04 0 174.08 0 0 Z " fill="#292929" transform="translate(0,0)"/>
<path d="M0 0 C2.11007255 16.96252496 3.28085845 33.89884127 3 51 C1.75347656 51.09796875 0.50695312 51.1959375 -0.77734375 51.296875 C-31.344418 53.89350443 -61.11063297 63.67332722 -86 82 C-87.05316406 82.76957031 -88.10632813 83.53914063 -89.19140625 84.33203125 C-126.68939003 112.21130486 -150.24562345 151.90481301 -158.68359375 197.7109375 C-161.71183335 218.30296675 -161.82132058 240.89955742 -156.50390625 261.07226562 C-156.06243159 262.76116289 -155.6822798 264.46584547 -155.3125 266.171875 C-146.40457449 306.48023795 -121.91226531 341.61664038 -89 366 C-88.44135254 366.41894531 -87.88270508 366.83789062 -87.30712891 367.26953125 C-71.62705353 378.87416853 -52.82479313 387.92857569 -34 393 C-33.34161133 393.17966309 -32.68322266 393.35932617 -32.00488281 393.54443359 C1.99583076 402.66793193 36.70118556 400.75246039 70 390 C70.70576172 389.77473633 71.41152344 389.54947266 72.13867188 389.31738281 C93.38472535 382.38391463 112.07332391 370.6703611 129.109375 356.3984375 C131 355 131 355 133 355 C134.3046875 356.29296875 134.3046875 356.29296875 135.875 358.1875 C139.11923169 362.00623106 142.46534936 365.70492722 145.875 369.375 C165 390.02151063 165 390.02151063 165 394 C161.67889309 397.37962862 157.77005949 400.13793376 154 403 C153.34080566 403.50418457 152.68161133 404.00836914 152.00244141 404.52783203 C141.18526131 412.74407793 130.08724443 419.80954284 118 426 C117.2570166 426.38639648 116.5140332 426.77279297 115.74853516 427.17089844 C63.12565708 454.29515575 0.04761086 458.31979472 -56.12084961 440.50756836 C-112.91896965 421.88396709 -160.33902252 380.81722389 -187.71875 327.79296875 C-201.79369636 299.79580108 -211.19990803 268.47028433 -212 237 C-212.03254883 235.90880859 -212.06509766 234.81761719 -212.09863281 233.69335938 C-212.57912961 215.41506722 -211.62381285 197.99102483 -208 180 C-207.81808105 179.07541992 -207.63616211 178.15083984 -207.44873047 177.19824219 C-203.62381219 158.25481314 -197.26876135 140.00036121 -188.07275391 122.98925781 C-186.93843562 120.88583829 -185.83494999 118.76765795 -184.73046875 116.6484375 C-170.5829082 89.9304215 -150.11448718 65.3164684 -126 47 C-125.44376953 46.57267578 -124.88753906 46.14535156 -124.31445312 45.70507812 C-89.50122745 19.05651775 -44.46949634 -1.10712439 0 0 Z " fill="#41B6FD" transform="translate(242,31)"/>
<path d="M0 0 C4.31367469 1.55211659 6.57173054 4.8535022 9.25 8.375 C9.73742676 9.00929932 10.22485352 9.64359863 10.72705078 10.29711914 C15.09202842 16.03019194 19.24257765 21.84753195 23 28 C23.47695313 28.77923828 23.95390625 29.55847656 24.4453125 30.36132812 C55.05611302 80.98978268 65.57014969 141.85649282 51.40625 199.5234375 C41.73887677 237.58871959 24.14622726 273.25693584 -3 302 C-8.25606755 300.52513359 -11.16260106 297.14049106 -14.8125 293.3125 C-16.05930176 292.03330537 -17.30798374 290.75594048 -18.55859375 289.48046875 C-19.15397949 288.87251465 -19.74936523 288.26456055 -20.36279297 287.63818359 C-22.85465303 285.14483719 -25.50110243 282.8635844 -28.19140625 280.58984375 C-31.01895432 278.10428854 -33.62020317 275.40226488 -36.23828125 272.69921875 C-38.09309306 270.80910864 -38.09309306 270.80910864 -41 269 C-39.3162995 265.06817668 -36.67321908 261.97440279 -34 258.6875 C-15.1627446 234.93954562 -1.52703259 207.19084413 3 177 C3.10151367 176.34596191 3.20302734 175.69192383 3.30761719 175.01806641 C6.99456095 150.47139507 6.47624089 123.81758954 -1 100 C-1.2160791 99.30293945 -1.4321582 98.60587891 -1.65478516 97.88769531 C-8.59743927 75.84534132 -19.04231441 56.83713951 -33.1171875 38.59375 C-34.68595283 36.4326293 -35.91232508 34.42723245 -37 32 C-36.34515625 31.47792969 -35.6903125 30.95585937 -35.015625 30.41796875 C-29.31935444 25.82394263 -23.85596046 21.09055264 -18.50317383 16.10620117 C-14.24387468 12.16456349 -9.81258701 8.49786686 -5.27734375 4.875 C-3.39823047 3.32787414 -1.67705831 1.75953659 0 0 Z " fill="#FA5E37" transform="translate(425,108)"/>
<path d="M0 0 C7.92 0 15.84 0 24 0 C24 5.28 24 10.56 24 16 C25.423125 15.94972656 26.84625 15.89945313 28.3125 15.84765625 C34.13425384 15.84868265 39.3855725 16.99208356 45 18.4375 C45.93972656 18.66759766 46.87945312 18.89769531 47.84765625 19.13476562 C54.64252232 20.82126116 54.64252232 20.82126116 57 22 C56.37690978 27.73113188 55.36367354 33.21452128 54 38.8125 C53.73316406 39.93688477 53.73316406 39.93688477 53.4609375 41.08398438 C52.73855685 44.10019315 51.98124263 47.05627212 51 50 C46.45246054 49.57697307 42.72214188 48.52877776 38.4375 46.9375 C32.12511702 44.92901451 26.17062006 44.55716838 19.5625 44.5 C18.6149585 44.48187256 17.66741699 44.46374512 16.69116211 44.44506836 C10.88551905 44.49506813 7.34672934 45.01668574 3 49 C2.0831978 52.45678447 2.0831978 52.45678447 3 56 C6.44103557 60.09368663 9.749441 62.07928724 14.6640625 64.0859375 C15.2967807 64.35080963 15.9294989 64.61568176 16.58139038 64.88858032 C18.59128749 65.72915579 20.60714929 66.55371975 22.625 67.375 C35.8327175 72.76629946 49.51412181 78.45161338 58.1875 90.3125 C58.86167969 91.21613281 59.53585937 92.11976563 60.23046875 93.05078125 C65.48507549 101.80845915 65.5353741 113.67997173 63.16015625 123.45703125 C58.68506611 135.19472559 51.17527024 141.77367061 40 147 C39.35933594 147.32871094 38.71867187 147.65742188 38.05859375 147.99609375 C33.44179241 150.23486749 29.04685697 150.61178023 24 151 C24 156.61 24 162.22 24 168 C16.08 168 8.16 168 0 168 C0 163.05 0 158.1 0 153 C-3.2484375 152.6596875 -3.2484375 152.6596875 -6.5625 152.3125 C-17.6867864 150.94810787 -28.17255163 147.41512461 -38 142 C-37.40317702 135.53315857 -35.87545517 129.68706803 -33.9375 123.5 C-33.51500977 122.12328125 -33.51500977 122.12328125 -33.08398438 120.71875 C-32.3951987 118.47727797 -31.70044695 116.23784969 -31 114 C-30.35095703 114.17917969 -29.70191406 114.35835938 -29.03320312 114.54296875 C-27.24261151 115.03497144 -25.44989033 115.51923043 -23.65625 116 C-20.9372137 116.74366805 -18.23483704 117.51652006 -15.53125 118.3125 C-3.34090576 121.82229395 9.05009287 125.08768854 21 119 C23.66272033 116.77899262 23.96202117 116.22787299 24.5625 112.625 C23.95067472 108.68212596 23.14268285 107.65825507 20.07104492 105.26269531 C15.68213382 102.58682024 10.72818873 101.17689528 5.875 99.5625 C-11.64374907 93.47333709 -27.29248756 87.20018133 -36.12109375 69.7890625 C-39.07447716 60.41699248 -38.21793616 49.20611166 -34.125 40.375 C-27.50821035 29.03004528 -17.88374238 22.87538149 -6 18 C-4.35 17.67 -2.7 17.34 -1 17 C-0.67 11.39 -0.34 5.78 0 0 Z " fill="#EEEEF0" transform="translate(243,172)"/>
<path d="M0 0 C18.24486414 5.62549977 35.47583239 14.96629409 51 26 C52.05960937 26.74765625 53.11921875 27.4953125 54.2109375 28.265625 C59.80609521 32.34818102 65.15115068 36.71645485 70.4375 41.1875 C71.01717529 41.67468506 71.59685059 42.16187012 72.1940918 42.66381836 C72.74750244 43.13956299 73.30091309 43.61530762 73.87109375 44.10546875 C74.35505615 44.51949951 74.83901855 44.93353027 75.33764648 45.36010742 C77.74311095 47.73307039 79.8368575 50.404229 82 53 C70.45 64.55 58.9 76.1 47 88 C43.40604249 86.20302124 41.62464543 84.84257771 38.8125 82.125 C24.39747224 68.9588513 7.17993564 58.37325224 -11.03735352 51.3815918 C-12.96484375 50.60546875 -12.96484375 50.60546875 -16 49 C-17.35633068 45.79555302 -16.86463962 43.8118356 -15.66064453 40.63037109 C-15.34346466 39.77623627 -15.02628479 38.92210144 -14.69949341 38.04208374 C-14.34748871 37.12843048 -13.99548401 36.21477722 -13.6328125 35.2734375 C-13.27863251 34.32941071 -12.92445251 33.38538391 -12.55953979 32.41275024 C-11.42487221 29.3962117 -10.275025 26.38571264 -9.125 23.375 C-8.35709739 21.33890931 -7.59015848 19.3024549 -6.82421875 17.265625 C-5.42127424 13.54516043 -4.01556893 9.82581472 -2.59814453 6.11083984 C-2.31311066 5.36345551 -2.02807678 4.61607117 -1.73440552 3.84603882 C-1 2 -1 2 0 0 Z " fill="#EEEEF0" transform="translate(334,44)"/>
<path d="M0 0 C22.9193504 0 43.15677408 2.89629006 65 9 C63.78499033 15.61553617 62.23566 22.01307611 60.25 28.4375 C59.9926709 29.28280273 59.7353418 30.12810547 59.47021484 30.99902344 C56.71315458 40.02000438 53.8667732 49.01337762 51 58 C49.4789378 57.75139629 47.95818128 57.50092323 46.4375 57.25 C45.34824219 57.07082031 44.25898438 56.89164063 43.13671875 56.70703125 C39.96624665 56.17476221 36.80543217 55.59805507 33.64453125 55.01171875 C32.67652588 54.83543945 31.70852051 54.65916016 30.71118164 54.47753906 C28.79885408 54.12878248 26.88776214 53.77314849 24.97827148 53.40917969 C16.53616376 51.88453283 8.75365267 51.54710329 0 51 C0 34.17 0 17.34 0 0 Z " fill="#30D082" transform="translate(256,30)"/>
<path d="M0 0 C0 3 0 3 -1.53125 4.82421875 C-2.1809375 5.43910156 -2.830625 6.05398437 -3.5 6.6875 C-4.1496875 7.31011719 -4.799375 7.93273437 -5.46875 8.57421875 C-5.9740625 9.04472656 -6.479375 9.51523438 -7 10 C-7.66 9.67 -8.32 9.34 -9 9 C-7.87895467 7.68412059 -6.75303035 6.37239647 -5.625 5.0625 C-4.99851563 4.33160156 -4.37203125 3.60070312 -3.7265625 2.84765625 C-2 1 -2 1 0 0 Z " fill="#E0E0E1" transform="translate(221,199)"/>
</svg>
